<svg xmlns="http://www.w3.org/2000/svg" width="56" height="56" fill="none" viewBox="0 0 56 56">
  <g filter="url(#a)">
    <circle cx="27" cy="27" r="15" fill="#7371C3"/>
  </g>
  <path stroke="#fff" stroke-width="2" d="M21 24.288v5.908c0 1.606 0 2.41.338 2.914a2 2 0 0 0 1.276.85c.596.117 1.337-.192 2.819-.81l4.067-1.7 2.21-.923c2.008-.838 3.011-1.256 3.347-1.878a2 2 0 0 0 .076-1.748c-.28-.648-1.244-1.152-3.17-2.161l-6.279-3.288c-1.546-.81-2.32-1.215-2.95-1.13a2 2 0 0 0-1.366.826C21 21.67 21 22.543 21 24.288Z"/>
  <defs>
    <filter id="a" width="56" height="56" x="0" y="0" color-interpolation-filters="sRGB" filterUnits="userSpaceOnUse">
      <feFlood flood-opacity="0" result="BackgroundImageFix"/>
      <feColorMatrix in="SourceAlpha" result="hardAlpha" values="0 0 0 0 0 0 0 0 0 0 0 0 0 0 0 0 0 0 127 0"/>
      <feMorphology in="SourceAlpha" operator="dilate" radius="1" result="effect1_dropShadow_2088_1367"/>
      <feOffset dx="1" dy="1"/>
      <feGaussianBlur stdDeviation="6"/>
      <feComposite in2="hardAlpha" operator="out"/>
      <feColorMatrix values="0 0 0 0 0.406707 0 0 0 0 0.395312 0 0 0 0 0.8625 0 0 0 0.79 0"/>
      <feBlend in2="BackgroundImageFix" result="effect1_dropShadow_2088_1367"/>
      <feBlend in="SourceGraphic" in2="effect1_dropShadow_2088_1367" result="shape"/>
    </filter>
  </defs>
</svg>
